<svg width="44" height="40" viewBox="0 0 44 40" fill="none" xmlns="http://www.w3.org/2000/svg">
<path d="M21.7523 0C9.73997 0 0 8.95536 0 20C0 31.0446 9.73997 40 21.7523 40C33.7646 40 43.5045 31.0446 43.5045 20C43.5045 8.95536 33.7646 0 21.7523 0ZM31.1475 13.4688L20.922 26.5045C20.7791 26.6879 20.5907 26.8373 20.3724 26.9404C20.1541 27.0435 19.9123 27.0973 19.6669 27.0973C19.4215 27.0973 19.1796 27.0435 18.9613 26.9404C18.7431 26.8373 18.5547 26.6879 18.4117 26.5045L12.357 18.7902C12.1725 18.5536 12.357 18.2232 12.6726 18.2232H14.9498C15.4451 18.2232 15.9161 18.442 16.2074 18.817L19.6644 23.2277L27.2972 13.4955C27.5885 13.125 28.0546 12.9018 28.5547 12.9018H30.8319C31.1475 12.9018 31.332 13.2321 31.1475 13.4688Z" fill="#22DE80"/>
</svg>
